# xmcd CD database file
#
# Track frame offsets:
#	150
#	5180
#	23045
#	57752
#	76692
#	83972
#	113410
#	160867
#	176717
#	195997
#	232032
#	248220
#	272277
#	273820
#	276610
#	278977
#	282002
#	284320
#	287317
#	290387
#	292810
#	295682
#	299035
#	316067
#
# Disc length: 4258 seconds
#
# Revision: 0
# Processed by: cddbd v1.5.1PL0 Copyright (c) Steve Scherf et al.
# Submitted via: CDex 1.40Release
#
DISCID=5c10a018
DTITLE=えすぷろだくしょん - 音盤 スペース☆トラバーズ
DYEAR=1994
DGENRE=Other
TTITLE0=シーン0 「プロローグ」
TTITLE1=徳田あずさ - スペース☆トラバーズ
TTITLE2=シーン1 「ラミアとソフィーの海賊的日常」
TTITLE3=シーン2 「出動！少年警察官」
TTITLE4=オリュンポス三十二歌神 - 宇宙警察機構のうた
TTITLE5=シーン3 「ええっ、弟子ぃ？！」
TTITLE6=シーン4 「オフロでタイホ、大作戦！」
TTITLE7=平松晶子 - 瞳の中の銀河
TTITLE8=シーン5 「三色パン星団の攻防・前編」
TTITLE9=シーン6 「三色パン星団の攻防・後編」
TTITLE10=シーン7 「エピローグ」
TTITLE11=徳田あずさ - 星を集める恋人たち
TTITLE12=「おまけの予告編集！」
TTITLE13=「おまけの予告編集！」
TTITLE14=「おまけの予告編集！」
TTITLE15=「おまけの予告編集！」
TTITLE16=「おまけの予告編集！」
TTITLE17=「おまけの予告編集！」
TTITLE18=「おまけの予告編集！」
TTITLE19=「おまけの予告編集！」
TTITLE20=「おまけの予告編集！」
TTITLE21=「おまけの予告編集！」
TTITLE22=こおろぎさとみ - 元気だもん！
TTITLE23=キャスト・ロール
EXTD=YEAR: 1994
EXTT0=
EXTT1=
EXTT2=
EXTT3=
EXTT4=
EXTT5=
EXTT6=
EXTT7=
EXTT8=
EXTT9=
EXTT10=
EXTT11=
EXTT12=
EXTT13=
EXTT14=
EXTT15=
EXTT16=
EXTT17=
EXTT18=
EXTT19=
EXTT20=
EXTT21=
EXTT22=
EXTT23=
PLAYORDER=
